HIERARCHY
ROOT root
{
	OFFSET	0	13.1	24.9
	CHANNELS 6  Xposition Yposition Zposition Xrotation Yrotation Zrotation
	JOINT spine_1
	{
		OFFSET	0	9.99999	0
		CHANNELS 3  Xrotation Yrotation Zrotation
		JOINT spine_2
		{
			OFFSET	0	112	-10
			CHANNELS 3  Xrotation Yrotation Zrotation
			JOINT spine_3
			{
				OFFSET	0	206.5	19.3
				CHANNELS 3  Xrotation Yrotation Zrotation
				JOINT spine_4
				{
					OFFSET	0	110.4	14.6
					CHANNELS 3  Xrotation Yrotation Zrotation
					JOINT neck_1
					{
						OFFSET	0	71.8	-50.3
						CHANNELS 3  Xrotation Yrotation Zrotation
						JOINT neck_2
						{
							OFFSET	0	86.2	-25.8
							CHANNELS 3  Xrotation Yrotation Zrotation
							JOINT head_ee
							{
								OFFSET	0	179.8	-8.7
								CHANNELS 3  Xrotation Yrotation Zrotation
								End Site
								{
									OFFSET	1	0	0
								}
							}
						}
					}
					JOINT left_clavicle
					{
						OFFSET	-43.2	22.4	-70.8
						CHANNELS 3  Xrotation Yrotation Zrotation
						JOINT left_shoulder
						{
							OFFSET	-93.9	-5.79999	48.7
							CHANNELS 3  Xrotation Yrotation Zrotation
							JOINT left_elbow
							{
								OFFSET	-291.4	-30.8	15.2
								CHANNELS 3  Xrotation Yrotation Zrotation
								JOINT left_lowarm_twist
								{
									OFFSET	-110.7	-3.89999	13.6
									CHANNELS 3  Xrotation Yrotation Zrotation
									JOINT left_hand
									{
										OFFSET	-110.7	-3.89999	13.6
										CHANNELS 3  Xrotation Yrotation Zrotation
										JOINT left_ee
										{
											OFFSET	-80.8	-5.10001	12.1
											CHANNELS 3  Xrotation Yrotation Zrotation
											End Site
											{
												OFFSET	1	0	0
											}
										}
									}
								}
							}
						}
					}
					JOINT right_clavicle
					{
						OFFSET	43.2	22.4	-70.8
						CHANNELS 3  Xrotation Yrotation Zrotation
						JOINT right_shoulder
						{
							OFFSET	93.9	-5.79999	48.7
							CHANNELS 3  Xrotation Yrotation Zrotation
							JOINT right_elbow
							{
								OFFSET	291.4	-30.8	15.2
								CHANNELS 3  Xrotation Yrotation Zrotation
								JOINT right_lowarm_twist
								{
									OFFSET	110.7	-3.89999	13.6
									CHANNELS 3  Xrotation Yrotation Zrotation
									JOINT right_hand
									{
										OFFSET	110.7	-3.89999	13.6
										CHANNELS 3  Xrotation Yrotation Zrotation
										JOINT right_ee
										{
											OFFSET	80.8	-5.10001	12.1
											CHANNELS 3  Xrotation Yrotation Zrotation
											End Site
											{
												OFFSET	1	0	0
											}
										}
									}
								}
							}
						}
					}
				}
			}
		}
	}
	JOINT left_hip
	{
		OFFSET	-82.8	-127.5	0.300001
		CHANNELS 3  Xrotation Yrotation Zrotation
		JOINT left_knee
		{
			OFFSET	-28.2	-396.7	2.2
			CHANNELS 3  Xrotation Yrotation Zrotation
			JOINT left_ankle
			{
				OFFSET	-11.7	-411.3	35.4
				CHANNELS 3  Xrotation Yrotation Zrotation
				JOINT left_toes
				{
					OFFSET	0	-60	-88.6
					CHANNELS 3  Xrotation Yrotation Zrotation
					JOINT left_foot_ee
					{
						OFFSET	-22.5	-16.5	-42.2
						CHANNELS 3  Xrotation Yrotation Zrotation
						End Site
						{
							OFFSET	1	0	0
						}
					}
				}
			}
		}
	}
	JOINT right_hip
	{
		OFFSET	82.8	-127.5	0.300001
		CHANNELS 3  Xrotation Yrotation Zrotation
		JOINT right_knee
		{
			OFFSET	28.2	-396.7	2.2
			CHANNELS 3  Xrotation Yrotation Zrotation
			JOINT right_ankle
			{
				OFFSET	11.7	-411.3	35.4
				CHANNELS 3  Xrotation Yrotation Zrotation
				JOINT right_toes
				{
					OFFSET	0	-60	-88.6
					CHANNELS 3  Xrotation Yrotation Zrotation
					JOINT right_foot_ee
					{
						OFFSET	22.5	-16.5	-42.2
						CHANNELS 3  Xrotation Yrotation Zrotation
						End Site
						{
							OFFSET	1	0	0
						}
					}
				}
			}
		}
	}
}
MOTION
Frames: 6
Frame Time: 0.02
3177.02 653.055 -1669.29 -6.57025143045 1.80076886606 5.22676441574 2.14534 -0.0645501 -0.814174 2.14571 -0.012613 -0.816631 2.14585 0.129208 -0.806444 2.14494 0.000227934 -0.816728 -2.78665 5.04438 0.501112 -2.75415 8.76409 1.23809 -0.0 0.0 -0.0 6.34382 19.3902 11.792 -7.44634 15.8006 63.1771 0.259709 -7.33112 0.0166379 33.9328 -0.0718506 -4.27139 0.413627 16.6713 9.35211 -0.0 0.0 -0.0 12.3808 23.2437 -24.541 0.978121 16.3403 -52.8711 1.98967 44.5802 -0.815687 18.0065 -0.279215 2.27377 2.13214 10.3501 -10.0393 0.0 0.0 0.0 24.6047 -39.7511 -6.85075 5.37966 -0.258613 -0.784522 4.30673 28.8541 -0.665927 -4.35643 0.0 0.0 -0.0 0.0 -0.0 -2.04407 9.586 -3.84838 -16.7489 -0.320178 -2.5412 39.6773 5.83312 4.91674 -0.74889 0.0 0.0 0.0 0.0 0.0 
3165.91823357 649.706 -1691.9213007 -6.72071708475 1.2164610953 5.46152420749 2.24529 0.0172695 -0.901927 2.24574 0.0746241 -0.899001 2.24449 0.227918 -0.872828 2.24344 0.0872166 -0.897867 -2.55117 5.1375 0.153418 -2.51248 9.19091 0.87259 -0.0 0.0 -0.0 7.01176 19.036 12.8518 -5.68859 15.1421 62.1084 0.281243 -7.93155 0.0194976 34.9562 -0.113234 -4.3955 0.407088 17.4823 9.61141 -0.0 0.0 -0.0 11.8871 23.319 -23.4009 0.0417912 16.6151 -52.7605 1.93188 43.7365 -0.775429 17.7918 -0.280123 2.24636 2.15604 10.568 -10.1067 0.0 0.0 0.0 24.126 -40.3064 -7.31571 3.79759 -0.17491 -0.556323 3.95148 28.9874 -0.612074 -3.81693 0.0 0.0 -0.0 0.0 -0.0 -2.10907 10.3389 -3.73486 -17.4628 -0.317212 -2.6507 40.1028 7.89878 4.99063 -0.0066627 0.0 0.0 0.0 0.0 0.0 
3155.57784232 650.94 -1708.78550662 -6.89784507976 -0.60406698871 5.76134634399 2.33959 0.0938653 -0.965166 2.3401 0.155088 -0.957238 2.3374 0.315715 -0.916891 2.33626 0.166954 -0.95524 -2.36962 5.34999 -0.651832 -2.31461 10.1984 0.0448217 -0.0 0.0 -0.0 7.20441 19.8431 13.0832 -4.84068 14.7206 62.5497 0.320299 -9.01598 0.0252531 35.7537 -0.147017 -4.49169 0.515195 17.1035 10.1415 -0.0 0.0 -0.0 11.6222 23.9437 -22.736 -1.64782 16.9065 -53.7132 1.84585 42.435 -0.71666 17.0977 -0.282353 2.15774 2.18402 10.6569 -10.2589 0.0 0.0 0.0 24.311 -40.6224 -6.69818 1.83637 -0.079965 -0.270432 2.81697 29.8841 -0.440198 -3.38943 0.0 0.0 -0.0 0.0 -0.0 -1.6936 10.8696 -4.33843 -17.9803 -0.31421 -2.73004 38.8671 10.1571 4.93088 0.786602 -0.0 -0.0 0.0 0.0 0.0 
3155.38165216 650.94 -1708.67836213 -6.89756872537 -0.321132437152 5.79557477727 2.33959 0.0938653 -0.965166 2.3401 0.155088 -0.957238 2.3374 0.315715 -0.916891 2.33626 0.166954 -0.95524 -2.36962 5.34999 -0.651832 -2.31461 10.1984 0.0448217 -0.0 0.0 -0.0 7.20441 19.8431 13.0832 -4.84068 14.7206 62.5497 0.320299 -9.01598 0.0252531 35.7537 -0.147017 -4.49169 0.515195 17.1035 10.1415 -0.0 0.0 -0.0 11.6222 23.9437 -22.736 -1.64782 16.9065 -53.7132 1.84585 42.435 -0.71666 17.0977 -0.282353 2.15774 2.18402 10.6569 -10.2589 0.0 0.0 0.0 24.311 -40.6224 -6.69818 1.83637 -0.079965 -0.270432 2.81697 29.8841 -0.440198 -3.38943 0.0 0.0 -0.0 0.0 -0.0 -1.6936 10.8696 -4.33843 -17.9803 -0.31421 -2.73004 38.8671 10.1571 4.93088 0.786602 -0.0 -0.0 0.0 0.0 0.0 
3138.07828653 657.975 -1744.93783104 -8.06830645055 -2.03974849903 5.73115381912 2.9575 -0.138636 -0.974958 2.95803 -0.0763189 -0.981803 2.95918 0.081185 -0.981413 2.95784 -0.074822 -0.981918 -3.99515 5.35353 -1.97244 -3.93403 11.2948 -1.18457 -0.0 0.0 -0.0 7.45333 16.7078 13.7444 -2.13662 15.6873 62.1531 0.307161 -8.65187 0.0232354 37.9015 -0.244636 -4.74834 0.878251 15.0495 11.6769 -0.0 0.0 -0.0 10.5822 25.3374 -20.2401 -5.68989 16.7167 -55.3189 1.70383 40.1619 -0.622913 16.177 -0.283655 2.04015 2.27813 11.2287 -10.6495 0.0 0.0 0.0 25.5444 -41.1232 -4.29563 -0.818005 0.0328168 0.121242 3.12682 29.7673 -0.487866 -3.39846 0.0 0.0 -0.0 0.0 -0.0 0.538952 12.588 -5.92462 -22.0224 -0.266131 -3.34827 36.5427 12.2403 4.768 1.71388 -0.0 -0.0 0.0 0.0 0.0 
3121.77181617 660.24 -1813.52459305 -6.49477572011 -3.09521163409 6.70459261891 3.30664 -0.44104 -1.21611 3.30739 -0.362768 -1.2417 3.315 -0.168198 -1.28262 3.31289 -0.368638 -1.23997 -5.65814 4.6622 -2.66893 -5.6123 10.5792 -1.85466 -0.0 0.0 -0.0 7.78902 12.2251 14.6538 -0.506381 17.3725 61.9877 0.173903 -4.92381 0.00747699 39.7607 -0.336877 -4.96748 1.26052 9.31252 12.0642 -0.0 0.0 -0.0 9.51544 24.9529 -17.89 -11.7234 15.5348 -59.5447 1.57664 37.9878 -0.542723 13.3618 -0.275914 1.68069 1.89369 9.28659 -8.87422 0.0 0.0 0.0 23.251 -40.9476 -1.50291 -7.8054 0.241805 1.17257 13.371 28.4195 -2.00747 -2.95816 0.0 0.0 -0.0 0.0 -0.0 3.92997 16.9636 -8.20799 -35.2403 0.192046 -5.32056 32.153 5.89868 4.20203 4.58823 -0.0 -0.0 0.0 0.0 0.0 
